<svg width="40" height="40" viewBox="0 0 40 40" fill="none" xmlns="http://www.w3.org/2000/svg">
<path d="M0 15C0 6.71573 6.71573 0 15 0H25C33.2843 0 40 6.71573 40 15V25C40 33.2843 33.2843 40 25 40H15C6.71573 40 0 33.2843 0 25V15Z" fill="#EBEBF0"/>
<path d="M21.048 19.958L26.2986 25.2086C26.6892 25.5992 26.6892 26.2323 26.2986 26.6229C25.9081 27.0134 25.275 27.0134 24.8844 26.6229L19.7959 21.5343L14.7074 26.6229C14.3168 27.0134 13.6837 27.0134 13.2931 26.6229C12.9026 26.2323 12.9026 25.5992 13.2931 25.2086L18.5438 19.958L13.2931 14.7074C12.9026 14.3168 12.9026 13.6837 13.2931 13.2931C13.6837 12.9026 14.3168 12.9026 14.7074 13.2931L19.7959 18.3817L24.8844 13.2931C25.275 12.9026 25.9081 12.9026 26.2986 13.2931C26.6892 13.6837 26.6892 14.3168 26.2986 14.7074L21.048 19.958Z" fill="#C1C1CB"/>
</svg>
